<svg width="75" height="16" viewBox="0 0 75 16" fill="currentColor" xmlns="http://www.w3.org/2000/svg" style="color: var(--color-text-1);"><path d="M7.89907 0C12.6515 0 15.7982 3.37534 15.7982 8.02192C15.7982 12.6904 12.6949 16 7.89907 16C3.10321 16 0 12.6904 0 8.02192C0 3.37534 3.12491 0 7.89907 0ZM47.8915 0C51.6458 0 54.0111 2.16986 54.749 4.64658L52.1232 5.65479C51.559 4.01096 50.3437 2.43288 47.8698 2.43288C44.9836 2.43288 43.1608 4.44931 43.1608 7.93425C43.1608 11.3973 44.9619 13.5452 47.8698 13.5452C50.322 13.5452 51.5807 12.0986 52.21 10.2575L54.7707 11.2877C53.8158 14.0712 51.559 16 47.8698 16C43.1174 16 40.1878 12.5151 40.1878 7.93425C40.1878 3.4411 43.3127 0 47.8915 0ZM33.8044 4.4274C37.1781 4.4274 39.0996 7.13053 38.8587 10.6313L38.839 10.8712H31.2003C31.3088 13.0849 32.4806 13.8959 33.8695 13.8959C35.3402 13.8959 36.0596 12.9373 36.4617 12.0495L36.517 11.9233L38.9041 12.8219C38.2096 14.5096 36.6906 16 33.8478 16C30.6578 16 28.5745 13.8521 28.5745 10.2137C28.5745 6.72877 30.8097 4.4274 33.8044 4.4274ZM60.7914 4.4274C64.1651 4.4274 66.0866 7.13053 65.8457 10.6313L65.826 10.8712H58.1873C58.2958 13.0849 59.4677 13.8959 60.8565 13.8959C62.3272 13.8959 63.0466 12.9373 63.4487 12.0495L63.504 11.9233L65.8911 12.8219C65.1966 14.5096 63.6776 16 60.8348 16C57.6448 16 55.5615 13.8521 55.5615 10.2137C55.5615 6.72877 57.7967 4.4274 60.7914 4.4274ZM23.4373 4.4274C26.0196 4.4274 27.083 6.0274 27.083 8.41644V15.6712H24.4355V9.00822C24.4355 7.36438 23.676 6.66301 22.4824 6.66301C20.0519 6.66301 20.0085 9.3589 20.0085 10.6959V15.6712H17.361V4.75616H19.9434V6.48767C20.2906 5.85205 21.3323 4.4274 23.4373 4.4274ZM70.1603 0.328768V15.6712H67.5128V0.328768H70.1603ZM75 0.328768V15.6712H72.3525V0.328768H75ZM7.89907 2.43288C4.79587 2.43288 2.9513 4.8 2.9513 8.02192C2.9513 11.2 4.79587 13.5671 7.89907 13.5671C11.0023 13.5671 12.8251 11.2 12.8251 8.02192C12.8251 4.8 11.0023 2.43288 7.89907 2.43288ZM33.8044 6.42192C32.559 6.42192 31.5716 7.24411 31.3172 8.69666L31.2871 8.89863H36.2132C36.1264 7.29863 35.1715 6.42192 33.8044 6.42192ZM60.7914 6.42192C59.546 6.42192 58.5586 7.24411 58.3042 8.69666L58.2741 8.89863H63.2002C63.1134 7.29863 62.1585 6.42192 60.7914 6.42192ZM8.73856 5.14848C9.54292 5.14848 10.195 5.80707 10.195 6.61947C10.195 7.43188 9.54292 8.09047 8.73856 8.09047C7.9342 8.09047 7.28213 7.43188 7.28213 6.61947C7.28213 5.80707 7.9342 5.14848 8.73856 5.14848Z" fill="currentColor"></path></svg>